<svg width="24" height="24" viewBox="0 0 24 24" fill="none" xmlns="http://www.w3.org/2000/svg">
<path fill-rule="evenodd" clip-rule="evenodd" d="M18.7071 5.29305C19.0976 5.68357 19.0976 6.31674 18.7071 6.70726L14.7076 10.7067C14.895 11.0984 15 11.537 15 12.0002C15 13.657 13.6569 15.0002 12 15.0002C11.5369 15.0002 11.0982 14.8952 10.7066 14.7078L6.70711 18.7073C6.31658 19.0978 5.68342 19.0978 5.29289 18.7073C4.90237 18.3167 4.90237 17.6836 5.29289 17.293L9.29237 13.2936C9.10495 12.9019 9 12.4633 9 12.0002C9 10.3433 10.3431 9.00015 12 9.00015C12.4631 9.00015 12.9018 9.1051 13.2934 9.29252L17.2929 5.29305C17.6834 4.90252 18.3166 4.90252 18.7071 5.29305ZM8.97767 17.6792C9.8745 17.882 10.8783 18 12 18C20 18 22 12 22 12C22 12 21.2283 9.68484 18.7261 7.93077L17.2845 9.37234C17.8078 9.70434 18.2361 10.0645 18.5858 10.4142C19.1646 10.993 19.553 11.5699 19.7953 12C19.553 12.4301 19.1646 13.007 18.5858 13.5858C17.4356 14.736 15.4349 16 12 16C11.5487 16 11.1222 15.9782 10.7192 15.9377L8.97767 17.6792ZM6.50843 14.4916C6.07782 14.1985 5.71662 13.8882 5.41421 13.5858C4.83538 13.007 4.44697 12.4301 4.20472 12C4.44697 11.5699 4.83538 10.9931 5.41421 10.4142C6.56439 9.26404 8.56511 8 12 8C12.3352 8 12.6567 8.01204 12.9652 8.03483L14.7396 6.26042C13.9158 6.09475 13.0053 6 12 6C4 6 2 12 2 12C2 12 2.73049 14.1915 5.07443 15.9256L6.50843 14.4916Z" fill="#7B86AF"/>
</svg>
