<svg width="348" height="51" viewBox="0 0 348 51" fill="none" xmlns="http://www.w3.org/2000/svg">
<g clip-path="url(#clip0_4_102)">
<path d="M32.4542 49.5297H23.5106V32.2455C23.5106 25.3224 22.1618 21.0861 17.1879 21.0861C12.7495 21.0861 9.53556 24.7152 9.53556 32.0448V49.5297H0.587158V13.8235H9.53556V17.9258C10.934 16.3442 12.6519 15.0769 14.5761 14.2074C16.5002 13.338 18.5867 12.8861 20.6983 12.8816C25.1365 12.8816 28.9053 14.9662 31.1245 19.2693C34.4197 15.1049 37.7152 12.8816 43.0813 12.8816C47.0509 12.8816 50.614 14.4977 52.6467 17.0508C54.9997 20.0104 55.2675 23.9119 55.2675 28.6166V49.5297H46.3239V29.8263C46.3239 23.9787 44.2386 21.0861 40.202 21.0861C35.6968 21.0861 32.4686 24.5813 32.4686 31.9109L32.4542 49.5297Z" fill="#034FA9"/>
<path d="M97.2857 42.6018C93.4597 48.0475 88.4091 50.4667 80.8763 50.4667C69.5127 50.4667 62.1807 42.1331 62.1807 31.6431C62.1807 21.8943 69.24 12.8816 80.7424 12.8816C92.0438 12.8816 99.7106 20.9523 99.7106 32.2455C99.7106 33.0536 99.6435 33.46 99.6435 34.2633H70.8566C71.7319 39.5751 75.7636 42.5347 80.8763 42.5347C84.7025 42.5347 87.266 41.459 89.753 39.0396L97.2857 42.6018ZM90.6952 27.2061C89.4852 23.0369 85.6543 20.4838 80.8763 20.4838C76.4379 20.4838 73.0088 22.7023 71.2584 27.2061H90.6952Z" fill="#034FA9"/>
<path d="M133.258 45.7632C130.096 48.8565 126.729 50.4678 122.224 50.4678C113.137 50.4678 105.208 42.6697 105.208 31.7111C105.208 20.5517 112.74 12.8827 122.023 12.8827C126.328 12.8827 130.025 14.4987 133.258 17.7261V0.0355682H142.202V49.5259H133.258V45.7632ZM114.223 31.6442C114.223 37.7642 118.259 42.2681 123.841 42.2681C129.422 42.2681 133.66 38.0988 133.66 31.5772C133.66 25.3235 129.489 21.0872 123.841 21.0872C117.953 21.0872 114.232 25.792 114.232 31.6442H114.223Z" fill="#034FA9"/>
<path d="M159.29 13.8244H150.346V49.5257H159.29V13.8244Z" fill="#034FA9"/>
<path d="M193.794 45.7621C190.633 48.8555 187.27 50.4667 182.764 50.4667C173.677 50.4667 165.748 42.6686 165.748 31.71C165.748 20.5506 173.281 12.8816 182.56 12.8816C186.863 12.8816 190.566 14.4977 193.794 17.725V13.8235H202.736V49.5297H193.794V45.7621ZM174.758 31.6431C174.758 37.7631 178.795 42.267 184.376 42.267C189.957 42.267 194.195 38.0977 194.195 31.5761C194.195 25.3224 190.024 21.0861 184.376 21.0861C178.46 21.0861 174.758 25.7909 174.758 31.6431Z" fill="#034FA9"/>
<path d="M210.872 0.0391388H219.825V49.5296H210.883L210.872 0.0391388Z" fill="#034FA9"/>
<path d="M254.317 45.7621C251.156 48.8555 247.794 50.4667 243.288 50.4667C234.202 50.4667 226.271 42.6686 226.271 31.71C226.271 20.5506 233.805 12.8816 243.088 12.8816C247.392 12.8816 251.09 14.4977 254.317 17.725V13.8235H263.261V49.5297H254.317V45.7621ZM235.283 31.6431C235.283 37.7631 239.318 42.267 244.901 42.267C250.482 42.267 254.72 38.0977 254.72 31.5761C254.72 25.3224 250.553 21.0861 244.901 21.0861C238.985 21.0861 235.283 25.7909 235.283 31.6431Z" fill="#034FA9"/>
<path d="M281.22 17.4572C284.649 14.5885 287.811 12.8816 291.777 12.8816C298.438 12.8816 304.021 17.4572 304.021 25.1215V49.5057H295.071V32.6615C295.071 25.5996 294.468 21.0958 289.022 21.0958C287.798 21.0907 286.595 21.4052 285.531 22.0083C284.469 22.6114 283.58 23.4819 282.957 24.5334C281.14 27.4021 281.211 30.6534 281.211 34.3492V49.5487H272.264V13.8235H281.211L281.22 17.4572Z" fill="#034FA9"/>
<path d="M339.056 45.7632C335.895 48.8565 332.533 50.4678 328.022 50.4678C318.936 50.4678 311.01 42.6697 311.01 31.7111C311.01 20.5517 318.544 12.8827 327.821 12.8827C332.127 12.8827 335.827 14.4987 339.056 17.7261V0.0355682H348V49.5259H339.056V45.7632ZM320.022 31.6442C320.022 37.7642 324.057 42.2681 329.64 42.2681C335.221 42.2681 339.459 38.0988 339.459 31.5772C339.459 25.3235 335.288 21.0872 329.64 21.0872C323.718 21.0872 320.022 25.792 320.022 31.6442Z" fill="#034FA9"/>
<path d="M159.342 0.21701H150.341V9.21527H159.342V0.21701Z" fill="#034FA9"/>
</g>
<defs>
<clipPath id="clip0_4_102">
<rect width="348" height="51" fill="white"/>
</clipPath>
</defs>
</svg>
