<svg width="143" height="143" viewBox="0 0 143 143" fill="none" xmlns="http://www.w3.org/2000/svg">
<g clip-path="url(#clip0_4_95)">
<path d="M132.958 0H8.58C3.8414 0 0 3.8414 0 8.58V132.958C0 137.697 3.8414 141.538 8.58 141.538H132.958C137.697 141.538 141.538 137.697 141.538 132.958V8.58C141.538 3.8414 137.697 0 132.958 0Z" fill="#034FA9"/>
<path d="M74.344 36.2076C72.3734 33.8186 69.0087 32.3517 65.3333 32.3517C61.2984 32.3517 58.3225 33.637 55.4159 36.7284C54.4152 35.3384 53.0745 34.2107 51.5138 33.4468C49.9533 32.6829 48.2216 32.3068 46.4741 32.3517C43.5289 32.3372 40.6598 33.2586 38.3057 34.9749V33.1211H28.3095V64.6569H38.3057V49.2043C38.3057 44.2731 40.2122 41.4445 43.5329 41.4445C45.9962 41.4445 47.6219 42.7919 47.6219 49.3667V64.6569H57.6181V49.1088C57.6181 44.2445 59.5443 41.4637 62.8994 41.4637C63.9733 41.4637 66.8408 41.4637 66.8408 47.4125V64.6998H76.837V46.4235C76.8173 42.6249 76.63 38.9981 74.344 36.2076Z" fill="white"/>
<path d="M103.613 20.2211V33.5475C101.313 31.8281 98.5376 30.9106 95.6936 30.9292C87.2477 30.9292 80.8788 38.1996 80.8788 47.8398C80.8788 57.2947 87.4562 64.7015 95.8549 64.7015C98.6397 64.7638 101.367 63.8795 103.613 62.1855V63.9164H113.23V20.2211H103.613ZM103.936 47.7277C103.936 52.2576 101.152 55.4222 97.1636 55.4222C93.3367 55.4222 90.553 52.2087 90.553 47.786C90.553 43.3633 93.2703 40.2036 97.1636 40.2036C101.152 40.2133 103.936 43.2901 103.936 47.7177V47.7277Z" fill="white"/>
<path d="M40.4413 72.7904H28.3095V113.23H40.4413V72.7904Z" fill="white"/>
<path d="M67.2131 72.7904V84.9054C64.9157 83.3404 62.1412 82.5059 59.2984 82.525C50.8525 82.525 44.4836 89.1345 44.4836 97.8981C44.4836 106.494 51.061 113.227 59.4597 113.227C62.243 113.284 64.9689 112.48 67.2131 110.94V112.513H76.8353V72.7904H67.2131ZM60.7684 104.791C56.9369 104.791 54.1578 101.87 54.1578 97.8495C54.1578 93.8289 56.8751 90.9563 60.7684 90.9563C64.7567 90.9563 67.5403 93.7711 67.5403 97.7963C67.5403 101.914 64.7567 104.791 60.7684 104.791Z" fill="white"/>
<path d="M113.229 101.1H101.097V113.232H113.229V101.1Z" fill="white"/>
<rect x="142" y="60" width="27" height="17" fill="#D9D9D9"/>
</g>
<defs>
<clipPath id="clip0_4_95">
<rect width="143" height="143" fill="white"/>
</clipPath>
</defs>
</svg>
